<svg xmlns="http://www.w3.org/2000/svg" xmlns:xlink="http://www.w3.org/1999/xlink" width="2000" zoomAndPan="magnify" viewBox="0 0 1500 1499.999933" height="2000" preserveAspectRatio="xMidYMid meet" version="1.0"><defs><g/><clipPath id="7ed41051a8"><path d="M 0.0390625 351 L 466 351 L 466 772 L 0.0390625 772 Z M 0.0390625 351 " clip-rule="nonzero"/></clipPath><clipPath id="bd59c1dbf7"><rect x="0" width="472" y="0" height="1035"/></clipPath></defs><g fill="#000000" fill-opacity="1"><g transform="translate(715.708211, 832.576711)"><g><path d="M 9.535156 -6.171875 L 179.488281 -404.648438 L 366.53125 -404.648438 L 361.996094 14.484375 L 226.839844 14.484375 L 225.382812 -37.511719 L 240.210938 -37.929688 L 229.117188 -28.082031 L 123.976562 -146.527344 L 245.828125 -146.527344 L 245.828125 -131.695312 L 231 -132.082031 L 234.863281 -279.582031 L 249.691406 -279.191406 L 234.972656 -277.351562 L 233.570312 -288.589844 L 248.289062 -290.429688 L 262.03125 -284.847656 L 199.625 -131.257812 L 117.648438 -131.257812 L 117.648438 -146.09375 L 128.898438 -155.757812 L 184.066406 -91.527344 L 139.054688 14.484375 L 0.722656 14.484375 Z M 36.824219 5.46875 L 23.179688 -0.351562 L 23.179688 -15.183594 L 129.234375 -15.183594 L 129.234375 -0.351562 L 115.582031 -6.148438 L 153.160156 -94.648438 L 166.8125 -88.851562 L 155.558594 -79.183594 L 85.351562 -160.925781 L 189.640625 -160.925781 L 189.640625 -146.09375 L 175.898438 -151.675781 L 255.953125 -348.703125 L 264.550781 -279.921875 L 260.28125 -116.859375 L 156.980469 -116.859375 L 156.980469 -131.695312 L 168.074219 -141.542969 L 254.886719 -43.738281 L 256.09375 -0.765625 L 241.265625 -0.351562 L 241.265625 -15.183594 L 347.320312 -15.183594 L 347.320312 -0.351562 L 332.488281 -0.511719 L 336.703125 -389.976562 L 351.535156 -389.816406 L 351.535156 -374.980469 L 189.289062 -374.980469 L 189.289062 -389.816406 L 202.933594 -383.996094 Z M 36.824219 5.46875 "/></g></g></g><g fill="#1ebfd8" fill-opacity="1"><g transform="translate(715.708211, 832.576711)"><g><path d="M 23.171875 -0.34375 L 189.296875 -389.8125 L 351.546875 -389.8125 L 347.328125 -0.34375 L 241.265625 -0.34375 L 240.21875 -37.921875 L 156.984375 -131.703125 L 245.828125 -131.703125 L 249.6875 -279.1875 L 248.296875 -290.4375 L 189.640625 -146.09375 L 117.640625 -146.09375 L 166.8125 -88.84375 L 129.234375 -0.34375 Z M 23.171875 -0.34375 "/></g></g></g><g transform="matrix(1, 0, 0, 1, 455, 163)"><g clip-path="url(#bd59c1dbf7)"><g clip-path="url(#7ed41051a8)"><g fill="#000000" fill-opacity="1"><g transform="translate(16.604977, 756.41779)"><g><path d="M 98.332031 14.484375 L -18.066406 14.484375 L 58.902344 -338.539062 L 73.398438 -335.378906 L 61.59375 -326.394531 L 2.019531 -404.644531 L 195.4375 -404.644531 L 230.863281 -230.523438 L 216.328125 -227.566406 L 204.144531 -236.03125 L 321.300781 -404.644531 L 448.28125 -404.644531 L 356.445312 14.484375 L 228.808594 14.484375 L 268.558594 -167.519531 L 283.050781 -164.351562 L 295.46875 -156.234375 L 252.132812 -89.980469 L 251.046875 -88.894531 C 249.886719 -87.734375 248.550781 -86.648438 247.03125 -85.636719 L 245.746094 -84.78125 L 244.3125 -84.207031 C 245.613281 -84.726562 246.832031 -85.558594 247.976562 -86.699219 C 250.578125 -89.304688 251.882812 -92.480469 251.882812 -96.222656 L 251.882812 -90.078125 L 243.675781 -81.871094 L 238.722656 -76.921875 L 148.894531 -9.320312 L 123.742188 -157.300781 L 138.367188 -159.789062 L 125.527344 -152.355469 L 121.664062 -159.027344 L 134.503906 -166.460938 L 148.996094 -163.304688 L 110.28125 14.484375 Z M 98.332031 -15.183594 L 98.332031 -0.351562 L 83.835938 -3.507812 L 128.15625 -207.03125 L 152.542969 -164.90625 L 174.0625 -38.304688 L 159.4375 -35.820312 L 150.515625 -47.671875 L 220.050781 -100 L 228.96875 -88.148438 L 218.480469 -98.636719 L 226.558594 -106.714844 L 237.046875 -96.222656 L 222.214844 -96.222656 C 222.214844 -100.671875 223.808594 -104.488281 226.996094 -107.679688 C 228.726562 -109.40625 230.824219 -110.765625 233.292969 -111.753906 L 238.804688 -97.980469 L 230.574219 -110.324219 C 230.460938 -110.246094 230.292969 -110.097656 230.070312 -109.875 L 240.558594 -99.382812 L 228.144531 -107.503906 L 270.636719 -172.472656 L 297.542969 -161.1875 L 261.722656 2.8125 L 247.230469 -0.351562 L 247.230469 -15.183594 L 344.507812 -15.183594 L 344.507812 -0.351562 L 330.019531 -3.527344 L 415.355469 -392.988281 L 429.847656 -389.8125 L 429.847656 -374.976562 L 329.058594 -374.976562 L 329.058594 -389.8125 L 341.238281 -381.347656 L 208.710938 -190.605469 L 168.78125 -386.855469 L 183.316406 -389.8125 L 183.316406 -374.976562 L 31.957031 -374.976562 L 31.957031 -389.8125 L 43.761719 -398.796875 L 89.351562 -338.914062 L 14.84375 2.808594 L 0.351562 -0.351562 L 0.351562 -15.183594 Z M 98.332031 -15.183594 "/></g></g></g></g><g fill="#1ebfd8" fill-opacity="1"><g transform="translate(16.604977, 756.41779)"><g><path d="M 98.328125 -0.34375 L 0.34375 -0.34375 L 73.390625 -335.375 L 31.953125 -389.8125 L 183.3125 -389.8125 L 216.328125 -227.5625 L 329.0625 -389.8125 L 429.84375 -389.8125 L 344.515625 -0.34375 L 247.234375 -0.34375 L 283.046875 -164.359375 L 240.5625 -99.390625 C 240.09375 -98.921875 239.503906 -98.453125 238.796875 -97.984375 C 237.628906 -97.515625 237.046875 -96.925781 237.046875 -96.21875 L 228.96875 -88.140625 L 159.4375 -35.828125 L 138.359375 -159.78125 L 134.5 -166.453125 Z M 98.328125 -0.34375 "/></g></g></g></g></g></svg>